# Blender3D v249 OBJ File: bullet.blend
# www.blender3d.org
mtllib bullet.mtl
v 0.085931 0.000000 0.207456
v 0.158780 0.000000 0.158780
v 0.207456 0.000000 0.085931
v 0.224548 0.000000 -0.000000
v 0.207456 0.000000 -0.085931
v 0.158780 0.000000 -0.158780
v 0.085931 0.000000 -0.207456
v 0.060762 0.060762 -0.207456
v 0.112274 0.112274 -0.158780
v 0.146693 0.146693 -0.085931
v 0.158780 0.158780 0.000000
v 0.146693 0.146693 0.085931
v 0.112274 0.112274 0.158780
v 0.060762 0.060762 0.207456
v 0.000000 0.000000 0.224548
v -0.000000 0.085931 0.207456
v -0.000000 0.158780 0.158780
v -0.000000 0.207456 0.085931
v -0.000000 0.224548 0.000000
v -0.000000 0.207456 -0.085931
v -0.000000 0.158780 -0.158780
v -0.000000 0.085931 -0.207456
v -0.060762 0.060762 -0.207456
v -0.112274 0.112274 -0.158780
v -0.146693 0.146693 -0.085931
v -0.158780 0.158780 0.000000
v -0.146693 0.146693 0.085931
v -0.112274 0.112274 0.158780
v -0.060762 0.060762 0.207456
v -0.085931 -0.000000 0.207456
v -0.158780 -0.000000 0.158780
v -0.207456 -0.000000 0.085931
v -0.224548 -0.000000 0.000000
v -0.207456 -0.000000 -0.085931
v -0.158780 -0.000000 -0.158780
v -0.085931 -0.000000 -0.207456
v -0.000000 -0.000000 -0.224548
v -0.060762 -0.060762 -0.207456
v -0.112274 -0.112274 -0.158780
v -0.146693 -0.146693 -0.085931
v -0.158780 -0.158780 0.000000
v -0.146693 -0.146693 0.085931
v -0.112274 -0.112274 0.158780
v -0.060762 -0.060762 0.207456
v 0.000000 -0.085931 0.207456
v 0.000000 -0.158780 0.158780
v 0.000000 -0.207456 0.085931
v 0.000000 -0.224548 0.000000
v 0.000000 -0.207456 -0.085931
v 0.000000 -0.158780 -0.158780
v 0.000000 -0.085931 -0.207456
v 0.060762 -0.060762 -0.207456
v 0.112274 -0.112274 -0.158780
v 0.146693 -0.146693 -0.085931
v 0.158780 -0.158780 0.000000
v 0.146693 -0.146693 0.085931
v 0.112274 -0.112274 0.158780
v 0.060762 -0.060762 0.207456
vt 0.708566 0.309570
vt 0.673897 0.366933
vt 0.649945 0.322751
vt 0.651979 0.431744
vt 0.606571 0.363594
vt 0.634006 0.498673
vt 0.576250 0.417558
vt 0.615060 0.565087
vt 0.551807 0.476423
vt 0.589284 0.627748
vt 0.527995 0.535790
vt 0.544348 0.678197
vt 0.499888 0.591654
vt 0.469046 0.693168
vt 0.460786 0.637241
vt 0.405369 0.659430
vt 0.414647 0.734840
vt 0.671672 0.762809
vt 0.696280 0.688052
vt 0.700251 0.612419
vt 0.702285 0.536705
vt 0.703900 0.460973
vt 0.705688 0.385249
vt 0.738089 0.372211
vt 0.756612 0.440082
vt 0.772188 0.509277
vt 0.789330 0.577772
vt 0.814375 0.642600
vt 0.863622 0.694295
vt 0.624090 0.691494
vt 0.344254 0.702924
vt 0.346748 0.646249
vt 0.257228 0.694295
vt 0.303374 0.605406
vt 0.207981 0.642600
vt 0.273053 0.551441
vt 0.182936 0.577772
vt 0.248610 0.492576
vt 0.165794 0.509277
vt 0.224798 0.433210
vt 0.150218 0.440082
vt 0.196691 0.377346
vt 0.131695 0.372211
vt 0.157589 0.331759
vt 0.763983 0.331759
vt 0.772243 0.275832
vt 0.165849 0.275832
vt 0.241151 0.290802
vt 0.286087 0.341251
vt 0.311863 0.403913
vt 0.330808 0.470327
vt 0.348782 0.537256
vt 0.370700 0.602067
vt 0.402491 0.583751
vt 0.400703 0.508027
vt 0.399088 0.432295
vt 0.397054 0.356581
vt 0.393083 0.280948
vt 0.368476 0.206190
vt 0.717844 0.234160
vt 0.656475 0.380899
vt 0.798561 0.365911
vt 0.647451 0.266076
vt 0.560425 0.274705
vt 0.511178 0.326400
vt 0.486133 0.391228
vt 0.468991 0.459722
vt 0.453415 0.528918
vt 0.434892 0.596788
vn 0.194456 0.080546 -0.977599
vn 0.541419 0.224263 -0.810291
vn 0.786151 0.325634 -0.525289
vn 0.908663 0.376381 -0.180744
vn 0.908663 0.376381 0.180744
vn 0.786151 0.325634 0.525289
vn 0.541419 0.224263 0.810291
vn 0.194456 0.080546 0.977599
vn 0.080546 0.194456 0.977599
vn 0.224263 0.541419 0.810291
vn 0.325634 0.786151 0.525289
vn 0.376381 0.908663 0.180744
vn 0.376381 0.908663 -0.180744
vn 0.325634 0.786151 -0.525289
vn 0.224263 0.541419 -0.810291
vn 0.080546 0.194456 -0.977599
vn -0.080546 0.194456 -0.977599
vn -0.224263 0.541419 -0.810291
vn -0.325634 0.786151 -0.525289
vn -0.376381 0.908663 -0.180744
vn -0.376381 0.908663 0.180744
vn -0.325634 0.786151 0.525289
vn -0.224263 0.541419 0.810291
vn -0.080547 0.194456 0.977599
vn -0.194456 0.080546 0.977599
vn -0.541419 0.224263 0.810291
vn -0.786151 0.325634 0.525289
vn -0.908663 0.376381 0.180744
vn -0.908663 0.376381 -0.180744
vn -0.786151 0.325634 -0.525289
vn -0.541419 0.224263 -0.810291
vn -0.194456 0.080546 -0.977599
vn -0.194456 -0.080547 -0.977599
vn -0.541419 -0.224263 -0.810291
vn -0.786151 -0.325635 -0.525289
vn -0.908663 -0.376381 -0.180744
vn -0.908663 -0.376381 0.180744
vn -0.786151 -0.325635 0.525289
vn -0.541419 -0.224263 0.810291
vn -0.194456 -0.080547 0.977599
vn -0.080546 -0.194456 0.977599
vn -0.224263 -0.541419 0.810291
vn -0.325634 -0.786151 0.525289
vn -0.376380 -0.908663 0.180744
vn -0.376380 -0.908664 -0.180744
vn -0.325634 -0.786151 -0.525289
vn -0.224263 -0.541419 -0.810291
vn -0.080546 -0.194456 -0.977599
vn 0.080547 -0.194456 -0.977599
vn 0.224263 -0.541419 -0.810291
vn 0.325635 -0.786151 -0.525289
vn 0.376381 -0.908663 -0.180744
vn 0.376381 -0.908663 0.180744
vn 0.325635 -0.786151 0.525289
vn 0.224263 -0.541419 0.810291
vn 0.080547 -0.194456 0.977599
vn 0.194456 -0.080546 0.977599
vn 0.541419 -0.224263 0.810291
vn 0.786151 -0.325634 0.525289
vn 0.908663 -0.376380 0.180744
vn 0.908663 -0.376381 -0.180744
vn 0.786151 -0.325634 -0.525289
vn 0.541419 -0.224263 -0.810291
vn 0.194456 -0.080546 -0.977599
usemtl Material.001_bullet.png
s off
f 37/1/1 8/2/1 7/3/1
f 7/3/2 8/2/2 9/4/2 6/5/2
f 6/5/3 9/4/3 10/6/3 5/7/3
f 5/7/4 10/6/4 11/8/4 4/9/4
f 4/9/5 11/8/5 12/10/5 3/11/5
f 3/11/6 12/10/6 13/12/6 2/13/6
f 14/14/7 1/15/7 2/13/7 13/12/7
f 1/15/8 14/14/8 15/16/8
f 14/14/9 16/17/9 15/16/9
f 13/12/10 17/18/10 16/17/10 14/14/10
f 12/10/11 18/19/11 17/18/11 13/12/11
f 11/8/12 19/20/12 18/19/12 12/10/12
f 10/6/13 20/21/13 19/20/13 11/8/13
f 9/4/14 21/22/14 20/21/14 10/6/14
f 8/2/15 22/23/15 21/22/15 9/4/15
f 37/1/16 22/23/16 8/2/16
f 37/1/17 23/24/17 22/23/17
f 22/23/18 23/24/18 24/25/18 21/22/18
f 21/22/19 24/25/19 25/26/19 20/21/19
f 20/21/20 25/26/20 26/27/20 19/20/20
f 19/20/21 26/27/21 27/28/21 18/19/21
f 18/19/22 27/28/22 28/29/22 17/18/22
f 17/18/23 28/29/23 29/30/23 16/17/23
f 16/17/24 29/31/24 15/16/24
f 29/31/25 30/32/25 15/16/25
f 28/33/26 31/34/26 30/32/26 29/31/26
f 27/35/27 32/36/27 31/34/27 28/33/27
f 26/37/28 33/38/28 32/36/28 27/35/28
f 25/39/29 34/40/29 33/38/29 26/37/29
f 24/41/30 35/42/30 34/40/30 25/39/30
f 23/43/31 36/44/31 35/42/31 24/41/31
f 37/1/32 36/45/32 23/24/32
f 37/1/33 38/46/33 36/45/33
f 36/44/34 38/47/34 39/48/34 35/42/34
f 35/42/35 39/48/35 40/49/35 34/40/35
f 34/40/36 40/49/36 41/50/36 33/38/36
f 33/38/37 41/50/37 42/51/37 32/36/37
f 32/36/38 42/51/38 43/52/38 31/34/38
f 31/34/39 43/52/39 44/53/39 30/32/39
f 30/32/40 44/53/40 15/16/40
f 44/53/41 45/54/41 15/16/41
f 43/52/42 46/55/42 45/54/42 44/53/42
f 42/51/43 47/56/43 46/55/43 43/52/43
f 41/50/44 48/57/44 47/56/44 42/51/44
f 40/49/45 49/58/45 48/57/45 41/50/45
f 39/48/46 50/59/46 49/58/46 40/49/46
f 38/46/47 51/60/47 50/61/47 39/62/47
f 37/1/48 51/60/48 38/46/48
f 37/1/49 52/63/49 51/60/49
f 51/60/50 52/63/50 53/64/50 50/61/50
f 50/59/51 53/64/51 54/65/51 49/58/51
f 49/58/52 54/65/52 55/66/52 48/57/52
f 48/57/53 55/66/53 56/67/53 47/56/53
f 47/56/54 56/67/54 57/68/54 46/55/54
f 46/55/55 57/68/55 58/69/55 45/54/55
f 45/54/56 58/69/56 15/16/56
f 58/69/57 1/15/57 15/16/57
f 1/15/58 58/69/58 57/68/58 2/13/58
f 56/67/59 3/11/59 2/13/59 57/68/59
f 55/66/60 4/9/60 3/11/60 56/67/60
f 54/65/61 5/7/61 4/9/61 55/66/61
f 53/64/62 6/5/62 5/7/62 54/65/62
f 52/63/63 7/3/63 6/5/63 53/64/63
f 37/1/64 7/3/64 52/63/64
