# Blender3D v249 OBJ File: oceanian.blend
# www.blender3d.org
mtllib oceanian.mtl
v 5.515205 6.253891 -1.983218
v 6.247926 -0.924456 -1.973966
v 4.617407 0.129275 -2.406424
v 4.469177 4.227171 -1.658351
v 4.249387 2.201921 0.796226
v 4.058945 1.200592 0.890686
v 3.323963 0.936538 1.523156
v 3.052886 0.783782 1.565252
v 2.455221 0.775685 1.716208
v 1.832712 0.927903 1.697481
v 1.262495 1.390581 1.617757
v 1.285087 1.738487 1.716208
v 1.145321 2.037567 1.643375
v 1.400884 2.310042 1.716208
v 1.945258 2.755531 1.716208
v 2.359774 2.855239 1.716208
v 2.917208 2.910945 1.565252
v 3.164072 2.427936 1.631602
v 2.701749 1.963252 2.633795
v 2.829531 1.886953 1.268259
v 3.268309 2.056627 2.415204
v 2.983109 1.813454 2.356953
v 3.167563 1.324581 2.446666
v 2.762564 1.417655 2.380064
v 2.539895 1.407048 2.380064
v 2.228640 1.474321 2.370701
v 1.878231 1.675413 2.380064
v 1.954828 1.851356 2.380064
v 1.896714 2.081145 2.380064
v 2.134962 2.266521 2.380064
v 2.284913 2.431471 2.380064
v 2.486574 2.455354 2.380064
v 2.723926 2.475883 2.380064
v 2.964802 2.269412 2.337761
v 2.831120 2.009212 2.547389
v 2.803839 1.892761 2.547302
v 2.794397 1.742367 2.558857
v 2.693566 1.694861 2.558857
v 2.582232 1.689558 2.558857
v 2.426605 1.723195 2.554176
v 2.251400 1.823740 2.558857
v 2.289698 1.911712 2.558857
v 2.260642 2.026606 2.558857
v 2.379766 2.119294 2.558857
v 2.454741 2.201770 2.558857
v 2.555572 2.213711 2.558857
v 2.666906 2.223975 2.558857
v 2.759445 2.086035 2.537706
v 1.667971 2.539623 1.716208
v 2.219685 2.359718 2.380064
v 2.422127 2.165893 2.558857
v 4.298013 3.728012 1.262341
v 3.998062 -0.251213 1.191776
v 1.541901 1.112069 1.656822
v 2.049931 1.576878 2.375476
v 2.337250 1.774473 2.556563
vt 0.484860 0.525030
vt 0.242688 0.218552
vt 0.297368 0.429300
vt 0.874635 0.295523
vt 0.923756 0.418130
vt 0.729489 0.267235
vt 0.413673 0.104761
vt 0.395412 0.306544
vt 0.560213 0.023193
vt 0.666533 0.446149
vt 0.783638 0.578866
vt 0.497744 0.426488
vt 0.862023 0.684217
vt 0.938033 0.571261
vt 0.992258 0.687599
vt 0.980026 0.813022
vt 0.932032 0.834392
vt 0.884386 0.835919
vt 0.838721 0.837745
vt 0.810502 0.827285
vt 0.783055 0.813079
vt 0.759807 0.791122
vt 0.739841 0.771098
vt 0.714452 0.718238
vt 0.697792 0.677436
vt 0.696595 0.650763
vt 0.837571 0.566965
vt 0.228266 0.814609
vt 0.193455 0.843801
vt 0.205966 0.802120
vt 0.179814 0.783561
vt 0.157594 0.792815
vt 0.140481 0.810169
vt 0.123203 0.840761
vt 0.115237 0.884400
vt 0.135330 0.891070
vt 0.150927 0.912032
vt 0.183268 0.905508
vt 0.207658 0.904144
vt 0.223653 0.889255
vt 0.240712 0.872483
vt 0.232810 0.837272
vt 0.192381 0.834211
vt 0.215668 0.771395
vt 0.184521 0.794254
vt 0.045232 0.313785
vt 0.141750 0.255630
vt 0.171347 0.317326
vt 0.663633 0.375344
vt 0.684535 0.184367
vt 0.746552 0.498342
vt 0.689747 0.440087
vt 0.562277 0.045015
vt 0.597234 0.230094
vt 0.453490 0.322267
vt 0.645581 0.163868
vt 0.870446 0.198920
vt 0.952707 0.009354
vt 0.968806 0.369822
vt 0.897697 0.306246
vt 0.725134 0.745660
vt 0.197104 0.904750
vt 0.251598 0.571462
vt 0.234441 0.498500
vt 0.462207 0.653837
vt 0.234441 0.660758
vt 0.181976 0.520064
vt 0.165678 0.575738
vt 0.012837 0.571943
vt 0.181976 0.655873
vt 0.361590 0.534590
vt 0.497033 0.701123
vt 0.488488 0.611709
vt 0.824329 0.832411
vt 0.119220 0.862580
vt 0.033432 0.883357
vt 0.027315 0.931698
vt 0.039549 0.835017
vt 0.757557 0.986285
vt 0.707482 0.970182
vt 0.807632 1.002388
vt 0.204445 0.978780
vt 0.227075 0.976854
vt 0.175474 0.980763
vt 0.561754 0.830355
vt 0.550341 0.804528
vt 0.708700 0.718738
vt 0.574506 0.855939
vt 0.183633 0.790358
vt 0.219654 0.764659
vt 0.178015 0.730340
vt 0.213104 0.721598
vt 0.309216 0.825594
vt 0.280169 0.778506
vt 0.303254 0.902725
vt 0.264016 0.945090
vt 0.104905 0.991826
vt 0.069898 0.948037
vt 0.076908 0.768038
vt 0.114650 0.730057
vt 0.164451 0.708993
vt 0.230912 0.744417
vt 0.383275 0.971300
vt 0.353884 0.959819
vt 0.357560 0.922049
vt 0.399828 0.932957
vt 0.477828 0.967861
vt 0.443334 0.854131
vt 0.518799 0.890618
vt 0.523299 0.960342
vt 0.526101 0.756555
vt 0.631457 0.917106
vt 0.676827 0.937410
vt 0.884623 0.842493
vt 0.883139 1.002814
vt 0.935436 0.996116
vt 0.983851 0.998847
vt 0.434028 0.912217
vt 0.440875 0.948062
vt 0.416144 0.959299
vn -0.796319 -0.599658 0.079134
vn -0.935697 0.352123 0.020844
vn -0.749931 -0.373943 -0.545610
vn 0.793664 0.601672 0.089694
vn 0.474532 0.540361 0.694815
vn 0.842586 0.446425 0.301218
vn 0.963805 0.153874 0.217689
vn 0.741295 0.137730 0.656850
vn 0.814570 -0.373699 0.443617
vn -0.167272 -0.598926 -0.783105
vn -0.797632 -0.599384 0.066836
vn 0.974120 0.223975 0.029328
vn -0.309152 -0.030869 -0.950512
vn -0.003104 -0.260546 -0.965456
vn -0.230126 -0.296158 -0.927002
vn -0.059008 -0.356053 -0.932601
vn -0.292132 0.277927 -0.915104
vn -0.233254 -0.331614 -0.914125
vn -0.165622 0.396685 -0.902890
vn -0.091675 0.381121 -0.919969
vn -0.277044 0.289457 -0.916221
vn 0.572486 0.182800 -0.799277
vn -0.364377 0.663921 -0.653023
vn -0.482808 -0.452287 -0.749889
vn 0.583410 -0.137281 0.800491
vn 0.127366 -0.270336 0.954304
vn 0.012826 -0.269267 0.962980
vn -0.079095 -0.230977 0.969739
vn -0.188242 0.081951 0.978698
vn -0.173445 -0.043864 0.983866
vn -0.139655 0.179487 0.973797
vn -0.031901 0.269366 0.962510
vn -0.025173 0.273042 0.961673
vn 0.606359 0.293455 0.739062
vn 0.377657 0.454066 0.806969
vn -0.653195 -0.017157 -0.756995
vn 0.567483 0.277368 0.775261
vn 0.978616 -0.192868 -0.071505
vn 0.510929 0.640043 0.573844
vn 0.901090 0.425825 0.081911
vn 0.253912 -0.798446 0.545905
vn 0.837917 0.467051 0.282417
vn -0.841007 -0.440550 -0.314043
vn -0.219574 0.255446 -0.941560
vn -0.210448 0.270275 -0.939502
vn -0.157843 0.143489 0.976983
vn -0.157842 0.143490 0.976983
vn 0.341711 -0.438853 0.831048
vn 0.176361 -0.733191 -0.656756
vn 0.244580 -0.123676 0.961709
vn -0.180966 -0.649185 0.738789
vn -0.868350 -0.031255 -0.494965
vn 0.618188 0.622999 0.479286
vn -0.081281 -0.335547 -0.938510
vn -0.129540 -0.264015 -0.955780
vn -0.095976 -0.212522 0.972432
vn -0.095976 -0.212523 0.972431
vn -0.234625 -0.448989 0.862183
vn -0.234625 -0.448990 0.862183
vn -0.234624 -0.448990 0.862183
vn -0.355188 -0.650202 0.671624
vn -0.579509 -0.490032 0.651182
vn -0.338750 -0.623110 0.704970
vn -0.454663 -0.566143 0.687578
vn -0.398053 0.361855 0.842980
vn -0.398052 0.361856 0.842980
vn -0.398051 0.361856 0.842980
vn -0.604212 0.549269 0.577263
vn -0.497537 0.638979 0.586654
vn -0.578580 0.525968 0.623380
vn -0.516352 0.600708 0.610353
vn -0.614680 -0.360654 -0.701496
vn -0.729365 -0.006773 -0.684092
vn 0.378636 0.454865 0.806060
vn 0.184288 0.557472 0.809483
vn 0.496916 0.424662 0.756794
vn 0.552517 0.248674 0.795541
vn -0.053837 0.583952 0.810001
vn -0.050653 0.585647 0.808982
vn -0.068764 0.580624 0.811263
vn -0.342102 0.439675 0.830453
vn -0.342102 0.439674 0.830453
vn -0.451801 -0.114261 0.884771
vn -0.489787 0.213230 0.845365
vn -0.489787 0.213229 0.845365
vn -0.136773 -0.515033 0.846188
vn -0.136772 -0.515033 0.846188
vn 0.025595 -0.537336 0.842980
vn 0.025594 -0.537336 0.842980
vn -0.244542 -0.449186 0.859320
vn 0.229275 -0.486639 0.842980
vn 0.296941 -0.537349 0.789355
vn 0.684178 -0.160822 0.711362
vn -0.935006 -0.354506 -0.009389
vn -0.680158 0.348726 -0.644807
vn 0.434045 0.835093 0.337970
vn 0.487782 0.812209 0.319978
vn -0.073347 0.848036 0.524838
vn 0.041865 0.877197 0.478303
vn -0.201047 0.835820 0.510867
vn -0.099928 0.843759 0.527338
vn -0.643184 0.434779 0.630302
vn -0.495805 0.637217 0.590026
vn -0.678786 -0.171665 0.713989
vn -0.687923 -0.148471 0.710435
vn -0.745143 -0.136347 0.652817
vn -0.696148 0.303069 0.650790
vn -0.172633 -0.702649 0.690277
vn -0.192584 -0.703417 0.684190
vn 0.172362 -0.746774 0.642356
vn 0.034599 -0.726384 0.686418
vn 0.495644 -0.767551 0.406451
vn -0.271744 -0.804116 0.528727
vn 0.854118 -0.114588 0.507299
vn 0.442988 -0.663880 0.602516
usemtl Material_test.tga
s 1
f 23/1/1 1/2/2 7/3/3
f 18/4/4 34/5/5 2/6/6
f 5/7/7 21/8/8 3/9/9
f 6/10/10 22/11/11 4/12/12
s off
f 20/13/13 5/14/13 6/15/13
f 20/13/14 7/16/14 8/17/14
f 20/13/15 8/17/15 9/18/15
f 20/13/16 9/18/16 10/19/16
f 20/13/17 11/20/17 12/21/17
f 20/13/18 12/21/18 13/22/18
f 20/13/19 13/22/19 14/23/19
f 20/13/20 15/24/20 16/25/20
f 20/13/21 16/25/21 17/26/21
f 20/13/22 17/26/22 18/27/22
f 18/27/23 5/14/23 20/13/23
f 6/15/24 7/16/24 20/13/24
f 35/28/25 19/29/25 36/30/25
f 37/31/26 19/29/26 38/32/26
f 38/32/27 19/29/27 39/33/27
f 39/33/28 19/29/28 40/34/28
f 41/35/29 19/29/29 42/36/29
f 42/36/30 19/29/30 43/37/30
f 43/37/31 19/29/31 44/38/31
f 45/39/32 19/29/32 46/40/32
f 46/40/33 19/29/33 47/41/33
f 47/41/34 19/29/34 48/42/34
f 48/42/35 19/29/35 35/28/35
f 37/43/36 19/44/36 36/45/36
f 1/46/37 7/47/37 6/48/37
f 4/12/38 5/49/38 6/10/38
f 4/50/39 22/51/39 5/52/39
f 3/53/40 18/54/40 21/55/40
f 3/53/41 5/56/41 18/54/41
f 2/6/42 17/57/42 18/4/42
f 2/58/43 34/59/43 17/60/43
f 14/23/44 49/61/44 20/13/44
f 49/61/45 15/24/45 20/13/45
f 45/39/46 51/62/46 19/29/46
f 51/62/47 44/38/47 19/29/47
f 15/63/48 49/64/48 52/65/48
f 15/63/49 52/65/49 16/66/49
f 8/67/50 9/68/50 53/69/50
f 9/68/51 10/70/51 53/69/51
f 1/46/52 6/48/52 23/71/52
f 17/26/53 33/72/53 34/73/53
f 10/19/54 54/74/54 20/13/54
f 54/74/55 11/20/55 20/13/55
f 41/35/56 56/75/56 19/29/56
f 56/75/57 40/34/57 19/29/57
f 56/75/58 41/35/58 55/76/58
f 41/35/59 27/77/59 55/76/59
f 40/34/60 56/75/60 26/78/60
f 56/75/59 55/76/59 26/78/59
f 55/79/61 27/80/61 54/74/61
f 27/80/62 11/20/62 54/74/62
f 26/81/63 55/79/63 10/19/63
f 55/79/64 54/74/64 10/19/64
f 51/62/65 45/39/65 50/82/65
f 45/39/66 31/83/66 50/82/66
f 44/38/67 51/62/67 50/82/67
f 44/38/66 50/82/66 30/84/66
f 50/85/68 31/86/68 15/87/68
f 50/85/69 15/87/69 49/61/69
f 30/88/70 50/85/70 49/61/70
f 30/88/71 49/61/71 14/23/71
f 23/89/72 37/90/72 22/91/72
f 37/90/73 36/92/73 22/91/73
f 34/93/74 48/42/74 35/28/74
f 34/93/75 35/28/75 21/94/75
f 33/95/76 47/41/76 34/93/76
f 47/41/77 48/42/77 34/93/77
f 32/96/78 46/40/78 47/41/78
f 32/96/79 47/41/79 33/95/79
f 31/83/80 45/39/80 32/96/80
f 45/39/80 46/40/80 32/96/80
f 29/97/81 43/37/81 30/84/81
f 43/37/82 44/38/82 30/84/82
f 28/98/83 42/36/83 43/37/83
f 28/98/83 43/37/83 29/97/83
f 27/77/84 41/35/84 28/98/84
f 41/35/85 42/36/85 28/98/85
f 25/99/86 39/33/86 40/34/86
f 25/99/87 40/34/87 26/78/87
f 24/100/88 38/32/88 39/33/88
f 24/100/89 39/33/89 25/99/89
f 23/101/90 37/31/90 24/100/90
f 37/31/91 38/32/91 24/100/91
f 21/94/92 35/28/92 22/102/92
f 35/28/93 36/30/93 22/102/93
f 7/103/94 23/104/94 22/105/94
f 7/103/95 22/105/95 6/106/95
f 21/107/96 5/108/96 18/109/96
f 21/107/97 18/109/97 34/110/97
f 16/25/98 32/111/98 33/72/98
f 16/25/99 33/72/99 17/26/99
f 15/87/100 31/86/100 16/25/100
f 31/86/101 32/111/101 16/25/101
f 13/22/102 29/112/102 14/23/102
f 29/112/103 30/88/103 14/23/103
f 12/21/104 28/113/104 29/112/104
f 12/21/105 29/112/105 13/22/105
f 11/20/106 27/80/106 12/21/106
f 27/80/107 28/113/107 12/21/107
f 9/114/108 25/115/108 26/81/108
f 9/114/109 26/81/109 10/19/109
f 8/17/110 24/116/110 9/114/110
f 24/116/111 25/115/111 9/114/111
f 7/16/112 23/117/112 8/17/112
f 23/117/113 24/116/113 8/17/113
f 5/118/114 21/119/114 6/106/114
f 21/119/115 22/120/115 6/106/115
