# Blender3D v249 OBJ File: porte.blend
# www.blender3d.org
mtllib porte.mtl
v 0.000000 -0.300000 0.000000
v 4.000000 -0.300000 0.000000
v 4.000000 -0.300000 8.000000
v 0.000000 -0.300000 8.000000
v 4.000000 0.000000 8.000000
v 0.000000 0.000000 8.000000
v 0.000000 0.000000 0.000000
v 4.000000 0.000000 0.000000
vt 0.000000 1.000000
vt 1.000000 1.000000
vt 1.000000 0.000000
vt 0.000000 0.000000
vn 0.000000 -1.000000 0.000000
vn 0.000000 0.000000 1.000000
vn -1.000000 0.000000 0.000000
vn 0.000000 0.000000 -1.000000
vn 1.000000 0.000000 0.000000
vn 0.000000 1.000000 0.000000
usemtl Material
s off
f 1/4/1 2/3/1 3/2/1 4/1/1
f 4/1/2 3/2/2 5/3/2 6/4/2
f 1/1/3 4/2/3 6/3/3 7/4/3
f 2/1/4 1/2/4 7/3/4 8/4/4
f 3/1/5 2/2/5 8/3/5 5/4/5
f 6/1/6 5/2/6 8/3/6 7/4/6
